<?xml version="1.0" encoding="UTF-8" standalone="no"?>
<!-- Created with Inkscape (http://www.inkscape.org/) -->

<svg
   width="102.35461mm"
   height="39.455166mm"
   viewBox="0 0 102.35461 39.455166"
   version="1.1"
   id="svg1"
   xml:space="preserve"
   inkscape:version="1.4.2 (f4327f4, 2025-05-13)"
   sodipodi:docname="ems_text.svg"
   xmlns:inkscape="http://www.inkscape.org/namespaces/inkscape"
   xmlns:sodipodi="http://sodipodi.sourceforge.net/DTD/sodipodi-0.dtd"
   xmlns="http://www.w3.org/2000/svg"
   xmlns:svg="http://www.w3.org/2000/svg"><sodipodi:namedview
     id="namedview1"
     pagecolor="#ffffff"
     bordercolor="#111111"
     borderopacity="1"
     inkscape:showpageshadow="0"
     inkscape:pageopacity="0"
     inkscape:pagecheckerboard="false"
     inkscape:deskcolor="#d1d1d1"
     inkscape:document-units="mm"
     showborder="false"
     inkscape:zoom="0.70710678"
     inkscape:cx="5.6568542"
     inkscape:cy="36.062446"
     inkscape:window-width="1920"
     inkscape:window-height="1009"
     inkscape:window-x="1912"
     inkscape:window-y="-8"
     inkscape:window-maximized="1"
     inkscape:current-layer="layer1" /><defs
     id="defs1" /><g
     inkscape:label="Layer 1"
     inkscape:groupmode="layer"
     id="layer1"
     transform="translate(-55.904665,-129.32187)"><g
       id="g5"
       transform="matrix(2.497092,0,0,2.497092,-160.31156,-223.14073)"><path
         style="fill:#aaccff;fill-opacity:1;stroke:#003380;stroke-width:0.9;stroke-linejoin:round;stroke-miterlimit:114.1;stroke-dasharray:none;stroke-opacity:1;paint-order:stroke fill markers"
         d="m 100.80571,142.02368 h -7.600475 c 0,0 -1.438243,-0.24555 -1.847499,1.08746 l -4.160991,10.61178 c 0,0 -0.826823,2.53007 1.289843,2.56315 h 6.879167 l 1.405599,-3.57188 h -5.457031 l 0.777213,-1.93476 h 5.308203 l 1.372526,-3.43959 h -5.407421 l 0.694531,-1.88515 h 5.390885 z"
         id="path3" /><path
         style="fill:#aaccff;fill-opacity:1;stroke:#003380;stroke-width:0.9;stroke-linejoin:round;stroke-miterlimit:114.1;stroke-dasharray:none;stroke-opacity:1;paint-order:stroke fill markers"
         d="m 103.18631,141.84974 -5.622401,14.58515 h 3.406511 l 3.90261,-10.15338 c 0,0 1.23196,-1.42214 1.65364,0.24805 l -3.73724,9.83919 h 3.40651 l 3.73724,-9.59115 c 0,0 1.35599,-1.88515 1.38907,0.33073 l -3.53881,9.29349 h 3.52227 l 4.36562,-11.32747 c 0,0 0.54571,-1.43867 0.0661,-2.29857 0,0 -1.10789,-2.69544 -4.21675,0.0661 l -0.59531,0.67804 c 0,0 -1.35599,-4.61367 -5.06015,0.46302 l 0.87643,-2.1332 z"
         id="path4" /><path
         style="fill:#aaccff;fill-opacity:1;stroke:#003380;stroke-width:0.9;stroke-linejoin:round;stroke-miterlimit:114.1;stroke-dasharray:none;stroke-opacity:1;paint-order:stroke fill markers"
         d="m 127.12675,141.90675 h -5.98684 c 0,0 -5.00462,0.86529 -3.53129,6.15055 l 2.24506,4.63044 h -4.5369 l -1.40317,3.81193 6.12716,-0.0468 c 0,0 4.98123,-1.14589 2.66601,-6.71178 l -1.82411,-3.90547 h 4.7006 z"
         id="path5" /></g></g></svg>
