<?xml version="1.0" encoding="UTF-8" standalone="no"?>
<!-- Created with Inkscape (http://www.inkscape.org/) -->

<svg
   width="183.37828mm"
   height="18.96484mm"
   viewBox="0 0 183.37828 18.96484"
   version="1.1"
   id="svg1"
   inkscape:version="1.4.2 (f4327f4, 2025-05-13)"
   sodipodi:docname="HC_EMS_TITLE.svg"
   xmlns:inkscape="http://www.inkscape.org/namespaces/inkscape"
   xmlns:sodipodi="http://sodipodi.sourceforge.net/DTD/sodipodi-0.dtd"
   xmlns:xlink="http://www.w3.org/1999/xlink"
   xmlns="http://www.w3.org/2000/svg"
   xmlns:svg="http://www.w3.org/2000/svg">
  <sodipodi:namedview
     id="namedview1"
     pagecolor="#d1d1d1"
     bordercolor="#111111"
     borderopacity="1"
     inkscape:showpageshadow="0"
     inkscape:pageopacity="0"
     inkscape:pagecheckerboard="false"
     inkscape:deskcolor="#d1d1d1"
     inkscape:document-units="mm"
     showborder="false"
     inkscape:zoom="1.4378367"
     inkscape:cx="356.09051"
     inkscape:cy="39.295144"
     inkscape:window-width="1920"
     inkscape:window-height="1009"
     inkscape:window-x="1912"
     inkscape:window-y="-8"
     inkscape:window-maximized="1"
     inkscape:current-layer="layer1" />
  <defs
     id="defs1">
    <inkscape:path-effect
       effect="offset"
       id="path-effect7"
       is_visible="true"
       lpeversion="1.3"
       linejoin_type="miter"
       unit="mm"
       offset="0.9"
       miter_limit="4"
       attempt_force_join="false"
       update_on_knot_move="true" />
    <inkscape:path-effect
       effect="offset"
       id="path-effect5"
       is_visible="true"
       lpeversion="1.3"
       linejoin_type="miter"
       unit="mm"
       offset="0"
       miter_limit="4"
       attempt_force_join="false"
       update_on_knot_move="true" />
    <linearGradient
       id="linearGradient1"
       inkscape:collect="always">
      <stop
         style="stop-color:#ffdd55;stop-opacity:1;"
         offset="0"
         id="stop1" />
      <stop
         style="stop-color:#a0892c;stop-opacity:1"
         offset="0.26927942"
         id="stop5" />
      <stop
         style="stop-color:#fff6d5;stop-opacity:1;"
         offset="0.48000029"
         id="stop3" />
      <stop
         style="stop-color:#a0892c;stop-opacity:1;"
         offset="0.74048126"
         id="stop4" />
      <stop
         style="stop-color:#ffdd55;stop-opacity:1"
         offset="1"
         id="stop2" />
    </linearGradient>
    <linearGradient
       inkscape:collect="always"
       xlink:href="#linearGradient1"
       id="linearGradient8"
       x1="101.41166"
       y1="128.67145"
       x2="101.41166"
       y2="110.45397"
       gradientUnits="userSpaceOnUse" />
  </defs>
  <g
     inkscape:label="Layer 1"
     inkscape:groupmode="layer"
     id="layer1"
     transform="translate(-10.324297,-109.98828)">
    <path
       style="font-weight:bold;font-size:25.4px;line-height:0;font-family:'Bell MT';-inkscape-font-specification:'Bell MT Bold';text-align:center;letter-spacing:-1.04246px;text-anchor:middle;fill:url(#linearGradient8);stroke-width:0.9;stroke-linejoin:round;stroke-miterlimit:114.1;paint-order:stroke fill markers"
       d="m 37.037109,109.98828 -0.228515,0.5586 c -2.026997,4.93098 -3.560447,8.8588 -4.59375,11.77539 -0.44636,1.26603 -0.833945,2.17877 -1.117188,2.68164 -0.290213,0.52833 -0.562526,0.83383 -0.65039,0.89843 -0.15649,0.11507 -0.451007,0.25989 -0.884766,0.38282 -0.03718,0.0108 -0.07606,0.0223 -0.115234,0.0371 -0.0054,-4e-5 -0.01032,0 -0.01563,0 -0.462186,0 -0.668271,-0.10283 -0.707032,-0.12696 -0.02317,-0.038 -0.148729,-0.27378 -0.18164,-0.76562 v -0.006 c -1.19e-4,-0.002 1.16e-4,-0.004 0,-0.006 -0.02939,-0.59318 -0.04687,-2.3947 -0.04687,-5.28906 0,-0.67884 0.02817,-1.96511 0.08594,-3.83008 0.03448,-1.11806 0.07475,-1.95341 0.119141,-2.48242 0.02735,-0.32591 0.07491,-0.56983 0.07031,-0.56641 0.04168,-0.12626 0.06883,-0.15236 0.105469,-0.17578 0.0073,-0.003 0.07623,-0.0348 0.201172,-0.0586 0.136665,-0.0261 0.338195,-0.0451 0.597656,-0.0488 0.728235,-0.0169 1.41211,-0.43954 1.41211,-1.29688 0,-0.83437 -0.669183,-1.24804 -1.371094,-1.24804 -0.126355,-1e-5 -0.30815,0.0126 -0.486328,0.0273 -1.031842,0.0642 -2.243655,0.0977 -3.63086,0.0977 0.01185,0 -0.633548,-0.0229 -1.628906,-0.0723 -0.772344,-0.0411 -1.375938,-0.0644 -1.783203,-0.0644 -0.737738,0 -1.396484,0.44319 -1.396484,1.28515 0,0.20064 0.04521,0.39097 0.152343,0.57813 0.346612,0.60552 1.077493,0.6956 1.558594,0.71679 0.247378,0.009 0.398306,0.0569 0.46875,0.0937 0.07044,0.0369 0.07768,0.0478 0.105469,0.10547 0.04708,0.0978 0.116753,0.31881 0.162109,0.63672 0.04536,0.31791 0.07031,0.73172 0.07031,1.23047 l -0.08789,2.93945 c -0.841725,0.0606 -1.711198,0.0918 -2.607422,0.0918 -0.882217,0 -1.716752,-0.0282 -2.503906,-0.0859 l -0.01953,-2.69726 c 0,-1.08975 0.07121,-1.84744 0.11914,-2.03516 0.02727,-0.1068 0.05837,-0.18292 0.08008,-0.22656 0.0033,-0.007 0.005,-0.0125 0.0078,-0.0176 h 0.002 c 0.02155,-0.007 0.05169,-0.0164 0.0918,-0.0234 0.115018,-0.0203 0.299097,-0.0351 0.535156,-0.0351 0.723824,0 1.396485,-0.42472 1.396485,-1.27149 0,-0.90658 -0.768245,-1.28515 -1.507813,-1.28515 h -0.01367 l -3.498047,0.11132 c -0.573606,-2.5e-4 -1.08262,-0.0146 -1.515625,-0.0449 -0.82627,-0.0648 -1.469988,-0.10351 -1.86914,-0.10351 -0.735963,0 -1.320313,0.4813 -1.320313,1.27148 0,0.32616 0.109071,0.79948 0.560547,1.07031 l 0.0293,0.0176 0.03125,0.0156 c 0.240156,0.12009 0.66788,0.18925 0.890625,0.22265 l 0.01367,0.002 0.01563,0.002 c 0.269281,0.0311 0.40043,0.0965 0.4375,0.11914 0.0077,0.0124 0.02523,0.0431 0.04492,0.0937 0.0385,0.099 0.08474,0.26955 0.11914,0.5 l 0.002,0.008 v 0.008 c 0.07306,0.43837 0.125,1.3046 0.125,2.50585 0,0.21829 -0.01229,1.71569 -0.03711,4.42188 -0.0099,1.61465 -0.03759,2.84712 -0.08203,3.67773 -0.02963,0.55374 -0.07374,0.94685 -0.09961,1.07618 v 0.004 l -0.002,0.006 c -0.04476,0.23756 -0.100413,0.41504 -0.148437,0.52539 -0.03602,0.0828 -0.06818,0.12634 -0.07617,0.13672 l -0.0039,0.002 c -0.01045,0.005 -0.06208,0.0378 -0.158203,0.0684 -0.133241,0.0424 -0.345667,0.0866 -0.621094,0.11524 h -0.0078 l -0.0078,0.002 c -0.595879,0.0727 -1.298828,0.42437 -1.298828,1.25195 0,0.92854 0.81664,1.27149 1.544922,1.27149 0.215928,0 0.690737,-0.0286 1.207031,-0.0645 0.832738,-0.049 1.493675,-0.0723 1.96875,-0.0723 1.049323,0 2.051645,0.0436 2.996094,0.13086 0.239623,0.0248 0.464618,0.043 0.636718,0.043 0.695608,0 1.410157,-0.387 1.410157,-1.24805 0,-0.82944 -0.672075,-1.22358 -1.339844,-1.25781 -0.455662,-0.0225 -0.557211,-0.10722 -0.585938,-0.14649 l -0.002,-0.002 c 0,0 -0.002,-0.002 -0.002,-0.002 0,0 0,-0.002 0,-0.002 0,0 -0.002,-0.002 -0.002,-0.002 0,0 0,-0.002 0,-0.002 l -0.002,-0.004 c -0.02707,-0.0568 -0.08301,-0.21797 -0.121094,-0.46484 -0.04133,-0.26792 -0.06641,-0.63239 -0.06641,-1.08008 0,-1.11373 0.03427,-2.34247 0.103515,-3.68359 0.596174,-0.036 1.326912,-0.0547 2.183594,-0.0547 0.882246,0 1.872437,0.0127 2.96875,0.0391 8.77e-4,0.0614 0,0.11637 0,0.16406 0,2.20756 -0.07379,3.70444 -0.173828,4.30469 -0.05429,0.32577 -0.122984,0.56985 -0.183594,0.71485 -0.03756,0.0899 -0.07046,0.13673 -0.08008,0.15039 -0.06149,0.0305 -0.306193,0.11914 -0.746094,0.11914 -0.694447,0 -1.271484,0.45867 -1.271484,1.22265 0,0.81274 0.627046,1.25977 1.345703,1.25977 0.372843,0 1.183381,-0.0437 2.234375,-0.11328 0.558206,-0.0315 0.941072,-0.0475 1.109375,-0.0488 l 3.398438,0.11133 0.03711,0.002 c 0.247004,0.0181 0.552344,0.0371 0.675781,0.0371 0.1138,0 0.24097,-0.009 0.371094,-0.0371 0.01268,2.6e-4 0.02445,0 0.03711,0 0.16966,0 0.348611,-0.0226 0.507813,-0.0488 0.537276,-0.0751 1.112519,-0.11328 1.724609,-0.11328 0.279804,0 0.799987,0.0266 1.521485,0.084 0.425097,0.0313 0.936203,0.0645 1.107422,0.0645 0.682849,0 1.408203,-0.37033 1.408203,-1.23438 0,-0.79857 -0.626059,-1.2123 -1.28125,-1.28125 -0.258358,-0.0258 -0.483221,-0.1055 -0.71875,-0.26757 l -0.0039,-0.004 c -0.07145,-0.0523 -0.09746,-0.0875 -0.117187,-0.12695 -0.0202,-0.0404 -0.03711,-0.0949 -0.03711,-0.20508 0,-0.11867 0.04033,-0.43585 0.146484,-0.86524 0.131401,-0.53149 0.355107,-1.24954 0.667969,-2.13476 0.851365,-0.005 1.932794,-0.008 3.246093,-0.008 0.174739,-1e-5 0.39703,0.002 0.666016,0.006 0.239281,0.55751 0.469541,1.1645 0.689453,1.82422 0.17193,0.51102 0.288193,0.9179 0.347656,1.19532 0.03964,0.18494 0.05078,0.31665 0.05078,0.34179 0,0.0605 -0.0078,0.084 -0.01172,0.0918 v 0.002 l -0.002,0.002 -0.002,0.002 v 0.002 l -0.002,0.002 c -0.0065,0.007 -0.02268,0.02 -0.06445,0.043 -0.08912,0.049 -0.297984,0.11901 -0.626953,0.14844 -0.588934,0.0552 -1.21289,0.4328 -1.21289,1.20703 0,0.89324 0.760003,1.25977 1.470703,1.25977 0.248225,0 0.809711,-0.0324 1.416015,-0.0762 0.904705,-0.0652 1.632668,-0.0977 2.167969,-0.0977 0.549322,0 1.251289,0.034 2.09961,0.10742 0.54925,0.0437 1.215791,0.0918 1.423828,0.0918 0.166803,0 0.364965,-0.0219 0.560547,-0.0918 0.04272,0.002 0.0829,0.004 0.121093,0.004 0.224466,0 0.802582,-0.0263 1.447266,-0.0625 0.781433,-0.0403 1.416954,-0.06 1.902344,-0.0606 l 3.818359,0.0996 h 0.01172 c 0.685463,0 1.384765,-0.38823 1.384765,-1.23633 10e-7,-0.86748 -0.740821,-1.2257 -1.398437,-1.26953 h -0.0098 -0.0078 c -0.538407,-0.0256 -0.757025,-0.16486 -0.773438,-0.17187 -0.0498,-0.0728 -0.170186,-0.35856 -0.191406,-0.88672 v -0.006 c -0.01407,-0.58469 -0.0237,-2.09451 -0.02539,-4.49024 0.463915,0.0155 0.832337,0.12193 1.152344,0.3086 0.290417,0.16941 0.529424,0.4476 0.72461,0.97461 0.197619,0.53357 0.446184,1.66008 0.673828,3.26172 0.189579,1.32705 0.562239,2.45677 1.269531,3.16406 l 0.255859,0.2539 5.146485,0.1211 h 0.0098 c 0.482676,0 1.269349,-0.0447 1.658203,-0.63672 0.127126,-0.19355 0.185547,-0.40461 0.185547,-0.62305 0,-0.88208 -0.769095,-1.22726 -1.43164,-1.26953 -0.519372,-0.0306 -0.781698,-0.16842 -1,-0.42383 -0.08808,-0.10494 -0.25285,-0.38334 -0.414063,-0.80468 -0.161212,-0.42135 -0.328846,-0.98454 -0.492187,-1.67774 -0.382257,-1.6159 -0.989265,-2.89125 -1.984375,-3.59765 l -0.0039,-0.004 c -0.0016,-0.001 -0.0042,-0.003 -0.0059,-0.004 -0.04689,-0.0338 -0.09452,-0.0673 -0.142578,-0.0996 0.846366,-0.37387 1.561425,-0.92953 2.132812,-1.66015 0.396091,-0.50648 0.670483,-1.06071 0.81836,-1.65625 0.241415,0.25182 0.593187,0.39062 0.988281,0.39062 0.703625,0 1.104968,-0.55312 1.306641,-1.0039 0.311792,-0.6961 0.696716,-1.22731 1.15625,-1.63282 0.46709,-0.419 0.893384,-0.62808 1.314453,-0.70312 0.384368,-0.0727 1.057307,-0.12955 1.972656,-0.15039 0.162683,2.04246 0.246094,4.60481 0.246094,7.67383 0,2.2118 -0.05458,3.68276 -0.128906,4.23046 -0.06425,0.51398 -0.210158,0.7429 -0.361329,0.86719 -0.147189,0.12102 -0.478767,0.25391 -1.089843,0.25391 -0.71427,0 -1.371094,0.42856 -1.371094,1.25976 0,0.64547 0.443472,1.06977 0.994141,1.18946 l 0.07617,0.0176 0.07617,0.002 c 0.370011,0.0157 0.659056,0.0254 0.806641,0.0254 h 0.01758 l 1.582031,-0.0625 c 0.375585,-0.0144 1.605597,-0.0233 3.587891,-0.0234 l 2.558594,0.0625 0.363281,0.0117 h 0.01563 c 0.708269,0 1.322266,-0.44968 1.322266,-1.24805 0,-0.82701 -0.68788,-1.19733 -1.322266,-1.24609 -0.541328,-0.0376 -0.950807,-0.095 -1.185547,-0.15234 -0.116064,-0.0284 -0.18829,-0.0626 -0.197266,-0.0645 -0.05474,-0.0405 -0.112753,-0.10785 -0.171875,-0.3125 -0.0059,-0.0204 -0.05458,-0.2732 -0.08984,-0.6289 -0.05289,-0.53356 -0.104164,-1.34752 -0.148438,-2.41993 -0.07387,-1.79745 -0.109375,-3.66211 -0.109375,-5.59375 0,-1.48401 0.03952,-2.76652 0.119141,-3.83984 1.035728,0.0271 1.78519,0.10508 2.179687,0.20117 0.500076,0.12027 0.911503,0.34777 1.296875,0.72657 0.414142,0.40033 0.752274,0.87858 1.027344,1.46484 0.233696,0.48772 0.66112,1.10742 1.408203,1.10742 0.826507,0 1.310547,-0.61805 1.310547,-1.38281 v -0.043 L 81.3125,113.23047 c -0.08598,-1.00048 -0.16832,-1.785 -0.234375,-2.17188 l -0.125,-0.73242 -0.742188,-0.0156 c -0.386213,-0.008 -0.674499,-0.0117 -0.849609,-0.0117 -0.450178,0 -1.016909,0.0174 -1.693359,0.0508 -1.864941,0.0904 -3.570114,0.13477 -5.115235,0.13477 -2.041864,0 -5.214594,-0.0582 -9.501953,-0.17383 l -0.759765,-0.0195 -0.146485,0.74609 c -0.134418,0.6805 -0.254822,1.52528 -0.361328,2.51367 -0.317937,-0.80285 -0.886836,-1.49101 -1.683594,-2.04687 -1.26491,-0.8923 -2.946102,-1.29297 -4.935547,-1.29297 -0.603117,0 -1.274283,0.026 -2.001953,0.0762 -1.594881,0.0977 -3.554574,0.14844 -5.873047,0.14844 -0.231748,0 -0.497573,0.0245 -0.738281,0.10742 -0.463363,0.15952 -0.857422,0.55965 -0.857422,1.15234 0,0.85912 0.712219,1.2433 1.404297,1.25977 0.356375,0.007 0.589538,0.0685 0.69336,0.11914 0.103822,0.0506 0.09095,0.0501 0.109375,0.0977 l 0.0039,0.01 0.0039,0.008 c 0.0099,0.0243 0.08888,0.33381 0.134766,0.78516 0.06882,0.67703 0.107417,1.71606 0.107422,3.07617 l -0.01367,4.46094 0.01367,2.30078 c 0,0.82951 -0.052,1.46256 -0.13086,1.85156 -0.03535,0.17436 -0.07745,0.29951 -0.103515,0.35938 -0.22624,0.11969 -0.455803,0.17383 -0.738282,0.17383 -0.14917,0 -0.326432,0.0202 -0.503906,0.0781 -0.499799,-0.09 -0.746752,-0.26032 -0.916016,-0.49805 -0.07212,-0.10303 -0.256326,-0.43096 -0.476562,-0.90234 -0.330354,-0.70707 -0.773622,-1.76346 -1.320313,-3.15234 -1.987934,-5.0647 -3.546072,-8.82248 -4.648437,-11.21094 l -0.240234,-0.52344 z M 94.875,110.1875 c -2.577207,0 -4.729887,0.96351 -6.427734,2.88281 -1.660231,1.87797 -2.498047,4.11557 -2.498047,6.66211 0,2.55278 0.834873,4.75425 2.501953,6.53125 1.69499,1.80675 4.005697,2.68945 6.808594,2.68945 2.15834,0 4.018306,-0.66768 5.492184,-2.01953 0.89896,-0.81929 1.78834,-1.72969 2.11914,-2.59765 0.43308,0.78956 0.99793,1.50181 1.69727,2.13086 1.82396,1.63244 4.03066,2.44922 6.56445,2.44922 2.78591,0 5.17558,-0.99089 7.07422,-2.95313 1.87683,-1.94867 2.84375,-4.23027 2.84375,-6.78906 0,-1.66176 -0.42105,-3.19509 -1.26562,-4.59961 -0.83542,-1.41377 -1.95478,-2.49942 -3.36328,-3.25 -1.40102,-0.75154 -3.00676,-1.11328 -4.80469,-1.11328 -2.75334,0 -5.11333,0.94273 -6.99805,2.81836 -0.90749,0.90749 -1.59896,1.91298 -2.07031,3.00781 l -0.004,-0.0664 -0.24804,-3.8789 -0.002,-0.006 c -0.0193,-0.25071 -0.0501,-0.83413 -0.24804,-1.16406 -0.28331,-0.47219 -0.78357,-0.56055 -1.09571,-0.56055 -0.64489,0 -1.072541,0.54705 -1.296873,0.87109 -0.02141,0.0297 -0.04326,0.0589 -0.06445,0.0879 C 98.01897,110.57135 96.44943,110.1875 94.875,110.1875 Z m 38.71875,0.0859 c -0.71053,0 -1.49609,0.35289 -1.49609,1.25976 0,0.92671 0.85334,1.25977 1.54492,1.33008 0.19512,0.019 0.3028,0.0659 0.40039,0.14258 0.0976,0.0767 0.1984,0.20079 0.29297,0.43164 0.0881,0.21513 0.18901,0.63267 0.2539,1.20703 0.0649,0.57436 0.0996,1.30774 0.0996,2.18555 0,3.02746 -0.13338,5.11176 -0.33984,6.08008 -0.20479,0.99466 -0.55827,1.61153 -0.98242,1.96875 -0.40568,0.33629 -1.11163,0.57422 -2.2168,0.57422 -1.09735,-1e-5 -1.89009,-0.21681 -2.43555,-0.57227 -0.57834,-0.3769 -0.89577,-0.8073 -1.0625,-1.40625 -0.16427,-0.59627 -0.30273,-2.18062 -0.30273,-4.5 0,-1.44613 0.042,-2.7651 0.12305,-3.95703 0.0392,-0.57969 0.10245,-1.04672 0.17968,-1.38086 0.0772,-0.33414 0.18094,-0.53142 0.20118,-0.55859 0.0668,-0.0891 0.13031,-0.14192 0.22851,-0.18946 0.0982,-0.0475 0.23712,-0.0867 0.43359,-0.0977 0.66648,-0.0333 1.35157,-0.42124 1.35157,-1.25782 0,-0.92586 -0.82882,-1.24804 -1.53125,-1.24804 -0.47922,0 -1.12615,0.0332 -1.91211,0.0918 -0.45608,0.0387 -0.85439,0.0576 -1.19531,0.0586 h -0.0156 l -3.99414,-0.13672 h -0.0156 c -0.72269,0 -1.4336,0.40171 -1.4336,1.27148 0,0.29491 0.0918,0.6743 0.4082,0.95117 l 0.043,0.0391 0.0488,0.0312 c 0.29385,0.19591 0.72654,0.24432 0.94727,0.26953 0.32994,0.036 0.48181,0.12294 0.51367,0.14844 1.4e-4,0.002 0.0277,0.0343 0.0586,0.10937 0.0446,0.10837 0.0968,0.29591 0.13867,0.54688 l 0.002,0.006 0.002,0.006 c 0.0928,0.51377 0.14451,1.23192 0.14453,2.11719 l -0.0488,6.61524 c 0,1.17969 0.11686,2.20087 0.41016,2.95507 l 0.002,0.006 0.002,0.004 c 0.29765,0.73899 0.76773,1.38073 1.40429,1.92773 0.6708,0.56761 1.53611,0.95702 2.54688,1.20508 0.99407,0.23496 2.13876,0.34766 3.41797,0.34766 1.68907,0 3.17245,-0.28335 4.39648,-0.89063 1.2422,-0.6211 2.14947,-1.50514 2.67774,-2.68359 0.51395,-1.15639 0.72265,-2.90044 0.72265,-5.04102 0,-3.25754 0.0553,-5.33086 0.12891,-5.96679 0.0859,-0.68757 0.28002,-1.06227 0.39648,-1.18164 0.17944,-0.18382 0.31874,-0.26423 0.47071,-0.29883 0.14433,0.0606 0.28604,0.098 0.4121,0.12109 0,0 0.002,0 0.002,0 0,0 0.002,0 0.002,0 0.002,3.8e-4 0.006,0.002 0.008,0.002 0.52859,0.10423 0.96686,0.38826 1.41211,1.01562 0.45773,0.63534 0.69202,1.30767 0.72657,2.10156 0.0459,0.88079 0.0723,3.51636 0.0723,7.7793 0,0.91099 -0.12105,1.58267 -0.28906,1.98242 l -0.002,0.006 -0.002,0.006 c -0.0387,0.0955 -0.0736,0.14185 -0.21289,0.21875 -0.13929,0.0769 -0.3941,0.15924 -0.77344,0.18945 -0.41195,0.0327 -1.10012,0.11983 -1.44336,0.66993 -0.11221,0.17984 -0.16796,0.37648 -0.16796,0.58593 0,0.82912 0.62283,1.31055 1.38476,1.31055 0.20489,0 0.53338,-0.0307 0.84961,-0.0684 l 0.008,-0.002 h 0.006 c 0.46658,-0.0627 1.34461,-0.10352 2.5586,-0.10352 0.74435,0 1.34553,0.032 1.77929,0.0899 h 0.008 l 0.01,0.002 c 0.29929,0.0342 0.58194,0.0566 0.82031,0.0566 0.72997,0 1.34766,-0.46336 1.34766,-1.27344 0,-0.80846 -0.64377,-1.22265 -1.32227,-1.22265 -0.22597,0 -0.57332,-0.0872 -1.02148,-0.33594 l -0.008,-0.004 c -0.1532,-0.0906 -0.25294,-0.18763 -0.33594,-0.3164 -0.0835,-0.12957 -0.14967,-0.29771 -0.1875,-0.53516 -0.0882,-0.62135 -0.13867,-1.54533 -0.13867,-2.73242 0,-1.56659 0.001,-2.83931 0.004,-3.81641 0.74772,0.86382 1.66551,1.91148 2.75196,3.13867 2.04911,2.29699 3.60139,4.00512 4.64844,5.11914 0.28525,0.29884 1.59589,1.71303 1.95898,1.89453 0.16783,0.0839 0.40625,0.16993 0.66211,0.16993 0.93048,0 1.31701,-0.78764 1.32226,-1.56641 v -0.008 c 1e-5,-0.003 0,-0.005 0,-0.008 l 0.0879,-5.2793 -0.0625,-7.02344 c 0,-0.51176 0.0529,-0.91073 0.13085,-1.17773 0.0779,-0.267 0.17021,-0.38789 0.22266,-0.4336 0.24403,-0.20854 0.46746,-0.331 0.69531,-0.39453 -0.0273,0.22544 -0.0544,0.46052 -0.0801,0.70313 -0.0373,0.37869 -0.1543,1.52831 -0.1543,1.71093 0,0.78968 0.58708,1.27344 1.32226,1.27344 0.70363,0 1.10497,-0.55311 1.30664,-1.0039 0.3118,-0.6961 0.69672,-1.22731 1.15625,-1.63282 0.46709,-0.419 0.89339,-0.62808 1.31446,-0.70312 0.38437,-0.0727 1.05731,-0.12955 1.97265,-0.15039 0.16269,2.04246 0.2461,4.60481 0.2461,7.67383 0,2.2118 -0.0546,3.68275 -0.12891,4.23046 -0.0642,0.51397 -0.21016,0.7429 -0.36133,0.86719 -0.14719,0.12103 -0.47877,0.25391 -1.08984,0.25391 -0.71427,0 -1.37109,0.42856 -1.37109,1.25976 0,0.64549 0.44347,1.06977 0.99414,1.18946 l 0.0762,0.0176 0.0762,0.002 c 0.37001,0.0157 0.65905,0.0254 0.80664,0.0254 h 0.0176 l 1.58008,-0.0625 c 0.37548,-0.0144 1.60752,-0.0233 3.58984,-0.0234 l 2.55859,0.0625 0.36329,0.0117 h 0.0156 c 0.71189,0 1.32031,-0.45242 1.32031,-1.24805 0,-0.82435 -0.68232,-1.19705 -1.32031,-1.24609 -0.54133,-0.0376 -0.95081,-0.095 -1.18555,-0.15234 -0.11607,-0.0284 -0.1883,-0.0626 -0.19726,-0.0645 -0.0547,-0.0405 -0.11275,-0.10783 -0.17188,-0.3125 -0.006,-0.0204 -0.0546,-0.2732 -0.0898,-0.6289 -0.0529,-0.53356 -0.10416,-1.34752 -0.14844,-2.41993 -0.0739,-1.79809 -0.11133,-3.66271 -0.11133,-5.59375 0,-1.48372 0.0409,-2.76609 0.1211,-3.83984 1.03584,0.0271 1.78515,0.10507 2.17969,0.20117 0.50007,0.12027 0.9115,0.34777 1.29687,0.72657 0.41414,0.40033 0.75228,0.87858 1.02734,1.46484 0.2337,0.48772 0.66113,1.10742 1.40821,1.10742 0.8265,0 1.31054,-0.61806 1.31054,-1.38281 v -0.043 l -0.18945,-1.9668 c 0.10634,0.0853 0.3176,0.29843 0.57227,0.61719 0.26247,0.32853 0.57907,0.77085 0.94531,1.32422 0.74479,1.1049 1.4905,2.26625 2.23828,3.48242 0.74107,1.19711 1.18702,2.05538 1.28125,2.32813 0.0247,0.0702 0.0724,0.27232 0.10547,0.55859 0.0496,0.4294 0.0781,1.05458 0.0781,1.84766 0,0.87722 -0.0392,1.55689 -0.10546,2.0039 -0.0442,0.29801 -0.11029,0.49432 -0.13086,0.53711 -0.0244,0.0517 -0.15944,0.21574 -0.81446,0.29688 0,0 -0.002,0 -0.002,0 0,0 0,0.002 0,0.002 0,0 -0.002,0 -0.002,0 0,0 -0.002,0 -0.002,0 -0.63661,0.0727 -1.15039,0.52603 -1.15039,1.24023 0,0.83121 0.65683,1.25977 1.3711,1.25977 0.15644,0 0.36549,-0.0129 0.57812,-0.0293 h 0.008 0.008 c 1.11847,-0.10536 2.11234,-0.15625 2.97851,-0.15625 0.23061,0 0.67724,0.018 1.30274,0.0586 0.9807,0.0654 1.81225,0.11328 2.10742,0.11328 0.72382,0 1.39648,-0.42471 1.39648,-1.27149 0,-0.81275 -0.62704,-1.25976 -1.3457,-1.25976 -0.3341,0 -0.55642,-0.0527 -0.6582,-0.0977 -0.0618,-0.0273 -0.0829,-0.0412 -0.0918,-0.0527 0,0 0,-0.002 0,-0.002 0,0 -0.002,0 -0.002,0 0,0 0,-0.002 0,-0.002 0,0 0,-0.002 0,-0.002 l -0.002,-0.006 c 0.002,0.002 -0.0799,-0.29572 -0.125,-0.73633 -0.0686,-0.67102 -0.10742,-1.71666 -0.10742,-3.09961 0,-0.91283 0.0154,-1.59473 0.043,-2.01758 0,0 0.0313,-0.32557 0.0391,-0.39258 0.0122,-0.0193 0.0815,-0.17838 0.19141,-0.36523 0.20486,-0.34811 0.55511,-0.88733 1.0332,-1.58984 0.8125,-1.18182 1.54274,-2.19941 2.19141,-3.05078 0.6396,-0.83701 1.18141,-1.37209 1.48437,-1.57227 0.35687,-0.23792 0.71937,-0.36913 1.13086,-0.41211 0.64435,-0.0666 1.16797,-0.52175 1.16797,-1.24219 0,-0.74892 -0.54906,-1.23437 -1.25976,-1.23437 -0.15203,0 -0.3205,0.0118 -0.48633,0.0293 -0.80449,0.0804 -1.49319,0.11915 -2.05664,0.11915 -0.50224,-1e-5 -1.28959,-0.0438 -2.32813,-0.13282 h -0.0137 c -0.13384,-0.0151 -0.29197,-0.0293 -0.41211,-0.0293 -0.74465,0 -1.3457,0.47981 -1.3457,1.28515 0,0.70649 0.54262,1.08444 1.03906,1.2168 0.26277,0.0753 0.45724,0.1508 0.56055,0.20312 0.0105,0.005 0.0207,0.011 0.0293,0.0156 0.008,0.004 0.0134,0.008 0.0195,0.0117 0.002,0.001 0.004,0.003 0.006,0.004 0.007,0.0121 0.0105,0.0202 0.0137,0.0273 -0.008,0.0309 -0.0247,0.10995 -0.0664,0.21289 -0.0692,0.17058 -0.19018,0.41513 -0.36133,0.71289 -0.41768,0.72668 -1.12803,1.76996 -2.11719,3.09766 -0.65018,-0.89246 -1.1906,-1.65932 -1.61914,-2.30079 -0.43238,-0.64721 -0.75176,-1.16932 -0.94921,-1.53906 -0.0816,-0.15286 -0.14141,-0.27998 -0.17969,-0.37109 0.0876,-0.0292 0.23081,-0.0666 0.42969,-0.0859 0.61935,-0.067 1.26171,-0.45479 1.26171,-1.25391 0,-0.80845 -0.64379,-1.22265 -1.32226,-1.22265 -0.19442,0 -0.42166,0.0116 -0.67774,0.0293 -1.1548,0.0895 -2.18882,0.13086 -3.10351,0.13086 -0.54888,0 -1.47536,-0.0414 -2.73828,-0.13086 h -0.006 c -0.1292,-0.0113 -0.26387,-0.0235 -0.38672,-0.0312 l -0.002,-0.008 -0.74219,-0.0156 c -0.38621,-0.008 -0.6745,-0.0117 -0.84961,-0.0117 -0.45018,0 -1.01691,0.0174 -1.69336,0.0508 -1.86491,0.0904 -3.57207,0.13477 -5.11719,0.13477 -2.04187,0 -5.21264,-0.0582 -9.5,-0.17383 l -0.75976,-0.0195 -0.01,0.0469 c -0.0281,-0.001 -0.0557,-0.002 -0.084,-0.002 -0.21279,0 -0.45778,0.0155 -0.73243,0.043 -0.53289,0.0592 -1.38244,0.0937 -2.50585,0.0937 -0.8897,0 -1.55714,-0.0318 -1.95118,-0.0801 -0.26586,-0.0354 -0.51606,-0.0566 -0.72656,-0.0566 -0.72075,0 -1.32226,0.46428 -1.32226,1.25976 0,0.79049 0.61199,1.20907 1.26171,1.2793 l 0.01,0.002 h 0.01 c 0.44014,0.0383 0.77961,0.15782 1.07617,0.35743 0.26408,0.17774 0.39337,0.3606 0.47656,0.67773 0.0871,0.32644 0.16601,1.12438 0.16602,2.24609 l -0.01,3.7793 c -2.34264,-2.47378 -5.12719,-5.54478 -8.34766,-9.20898 l -0.25976,-0.29493 -0.39258,-0.0117 c -0.9352,-0.0251 -1.94391,-0.0371 -3.02539,-0.0371 -0.47883,0 -0.82072,-0.009 -0.94531,-0.0195 h -0.006 c -0.14623,-0.0151 -0.31328,-0.0293 -0.4375,-0.0293 -0.0694,0 -0.1432,0.003 -0.21875,0.0117 -0.19094,-0.05 -0.37989,-0.0625 -0.54883,-0.0625 -0.20093,0 -0.57933,0.0245 -0.9707,0.0547 -0.54936,0.0478 -1.04154,0.0703 -1.47266,0.0703 -0.47571,0 -0.92934,-0.0203 -1.36133,-0.0586 h -0.01 c -0.42258,-0.0466 -0.78829,-0.0781 -1.03516,-0.0781 z m -22.16211,2.61914 c 0.50774,0 0.93132,0.11528 1.33399,0.35156 0.40266,0.23628 0.78984,0.60417 1.15625,1.14844 0.69805,1.0369 1.12304,2.74903 1.12304,5.15234 0,2.55231 -0.46174,4.29557 -1.17187,5.24024 -0.38782,0.51708 -0.78356,0.87062 -1.18164,1.0957 -0.39809,0.22507 -0.79928,0.33008 -1.25977,0.33008 -0.54168,0 -0.98118,-0.12044 -1.38672,-0.36524 -0.40554,-0.2448 -0.78493,-0.62724 -1.13281,-1.18945 -0.68359,-1.11606 -1.08203,-2.81477 -1.08203,-5.11133 0,-2.3947 0.42501,-4.10278 1.125,-5.14258 0.36709,-0.54884 0.75549,-0.92079 1.15625,-1.1582 0.40076,-0.23741 0.81844,-0.35156 1.32031,-0.35156 z m -57.55664,0.0137 c 0.788499,0 1.31065,0.20549 1.75,0.62109 0.417816,0.39524 0.636719,0.90786 0.636719,1.76368 0,0.5326 -0.116021,1.0148 -0.361328,1.49218 -0.187482,0.36976 -0.483674,0.63787 -1.054688,0.84961 -0.493266,0.17937 -0.97342,0.28508 -1.447266,0.32422 v -5.01172 c 0.176988,-0.0273 0.336001,-0.0391 0.476563,-0.0391 z m 41.818359,0.0742 c 0.549576,0 1.017463,0.10613 1.44336,0.3125 0.425896,0.20637 0.81556,0.51655 1.1875,0.97266 0.8436,1.01704 1.401223,1.91972 1.691411,2.66992 0.1791,0.45466 0.56863,0.98047 1.25976,0.98047 0.29597,0 0.54458,-0.0799 0.74219,-0.2168 -0.14538,0.67126 -0.21875,1.3694 -0.21875,2.09375 0,0.93459 0.10631,1.81236 0.31836,2.62891 -0.12611,-0.0367 -0.2635,-0.0567 -0.40821,-0.0567 -0.59486,0 -1.00195,0.42687 -1.23632,0.76172 -1.318404,1.91207 -2.591911,2.6875 -3.923832,2.6875 -0.64624,0 -1.20355,-0.13928 -1.724609,-0.41992 -0.52106,-0.28064 -1.011082,-0.71094 -1.470703,-1.32617 -0.905539,-1.21927 -1.398438,-2.91055 -1.398438,-5.16797 0,-1.31723 0.177786,-2.40892 0.5,-3.27539 0.338412,-0.89017 0.780316,-1.53747 1.316406,-1.99414 0.512533,-0.43753 1.104095,-0.65039 1.921875,-0.65039 z m -58.894531,4.67187 c 0.09801,0.23287 0.201148,0.47738 0.310547,0.73438 0.225035,0.52767 0.422828,1.00017 0.591797,1.41797 l -1.742188,0.0254 z"
       id="path5"
       aria-label="HART COUNTY" />
    <path
       style="font-weight:bold;font-size:25.4px;line-height:0;font-family:'Bell MT';-inkscape-font-specification:'Bell MT Bold';text-align:center;letter-spacing:-1.04246px;text-anchor:middle;fill:#002b00;stroke-width:0.9;stroke-linejoin:round;stroke-miterlimit:114.1;paint-order:stroke fill markers"
       d="m 37.640625,110.88867 c -2.025716,4.92787 -3.550912,8.83854 -4.576172,11.73242 -0.454753,1.28984 -0.847005,2.22936 -1.177734,2.81641 -0.322461,0.58704 -0.62513,0.98275 -0.90625,1.18945 -0.28112,0.20671 -0.669923,0.38093 -1.166016,0.52149 -0.07274,0.0212 -0.131659,0.05 -0.177734,0.0879 -0.06111,-0.009 -0.129125,-0.0137 -0.205078,-0.0137 -0.628386,0 -1.075261,-0.12845 -1.339844,-0.38477 -0.256316,-0.25631 -0.405926,-0.71009 -0.447266,-1.36328 -0.03307,-0.65319 -0.04883,-2.43528 -0.04883,-5.3457 0,-0.7028 0.02806,-1.98881 0.08594,-3.85743 0.05788,-1.87689 0.133658,-2.96751 0.224609,-3.27343 0.09922,-0.3142 0.268034,-0.54649 0.507812,-0.69532 0.248048,-0.14883 0.661459,-0.22806 1.240235,-0.23632 0.355533,-0.008 0.533203,-0.14017 0.533203,-0.39649 0,-0.23151 -0.15651,-0.34765 -0.470703,-0.34765 -0.08268,0 -0.223438,0.009 -0.421875,0.0254 -1.058333,0.0661 -2.289713,0.0996 -3.695313,0.0996 -0.115755,0 -0.675326,-0.0246 -1.675781,-0.0742 -0.777213,-0.0413 -1.355989,-0.0625 -1.736328,-0.0625 -0.330729,0 -0.496094,0.12845 -0.496094,0.38476 0,0.23979 0.281511,0.37169 0.84375,0.39649 0.686264,0.0248 1.136589,0.26054 1.351563,0.70703 0.214974,0.44648 0.322265,1.19948 0.322265,2.25781 l -0.111328,3.76953 c -1.116211,0.10749 -2.277213,0.16211 -3.484375,0.16211 -1.215429,0 -2.348372,-0.0546 -3.398437,-0.16211 l -0.02539,-3.52148 c 0,-1.11621 0.04922,-1.86921 0.148438,-2.25781 0.09922,-0.38861 0.252279,-0.64896 0.458984,-0.78125 0.206706,-0.1323 0.583204,-0.19922 1.128906,-0.19922 0.33073,0 0.496094,-0.12305 0.496094,-0.3711 0,-0.25631 -0.202279,-0.38476 -0.607422,-0.38476 l -3.498047,0.11133 c -0.595312,0 -1.12832,-0.0158 -1.599609,-0.0488 -0.843359,-0.0661 -1.443294,-0.0996 -1.798828,-0.0996 -0.28112,0 -0.419922,0.12304 -0.419922,0.37109 0,0.14884 0.04036,0.24923 0.123047,0.29883 0.08268,0.0414 0.290365,0.0871 0.621094,0.13672 0.429947,0.0496 0.748372,0.16921 0.955078,0.35937 0.206705,0.19018 0.350911,0.56127 0.433593,1.11524 0.09095,0.5457 0.136719,1.4306 0.136719,2.65429 0,0.24805 -0.0123,1.72403 -0.03711,4.42774 -0.01654,2.70371 -0.08346,4.34505 -0.199219,4.92383 -0.107487,0.5705 -0.276302,0.95931 -0.507812,1.16601 -0.223242,0.20672 -0.654362,0.34403 -1.291016,0.41016 -0.338997,0.0413 -0.507813,0.16093 -0.507813,0.35937 0,0.24805 0.214584,0.3711 0.644532,0.3711 0.173632,0 0.558984,-0.0212 1.154297,-0.0625 0.843359,-0.0496 1.517122,-0.0742 2.021484,-0.0742 1.07487,0 2.103972,0.0458 3.08789,0.13672 0.239779,0.0248 0.420898,0.0371 0.544922,0.0371 0.338998,0 0.509766,-0.11615 0.509766,-0.34766 0,-0.22325 -0.161914,-0.34284 -0.484375,-0.35937 -0.669727,-0.0331 -1.113152,-0.23536 -1.328125,-0.60743 -0.206706,-0.37207 -0.308594,-1.03698 -0.308594,-1.99609 0,-1.34772 0.04922,-2.85371 0.148438,-4.51562 0.74414,-0.0827 1.757487,-0.12305 3.039062,-0.12305 1.116212,0 2.39681,0.0212 3.84375,0.0625 0.01653,0.46302 0.02539,0.8095 0.02539,1.04101 0,2.22416 -0.06152,3.70899 -0.185547,4.45313 -0.124023,0.74414 -0.322852,1.21907 -0.595703,1.42578 -0.272852,0.20671 -0.707423,0.31055 -1.302735,0.31055 -0.248047,0 -0.371093,0.10729 -0.371093,0.32226 0,0.23978 0.147656,0.35938 0.445312,0.35938 0.33073,0 1.059115,-0.0369 2.183594,-0.11133 0.587045,-0.0331 0.982748,-0.0508 1.189453,-0.0508 l 3.435547,0.11328 c 0.330729,0.0248 0.547266,0.0371 0.646484,0.0371 0.113089,0 0.203315,-0.0159 0.273438,-0.0469 0.04077,0.006 0.08633,0.01 0.134765,0.01 0.09922,0 0.222266,-0.0143 0.371094,-0.0391 0.587045,-0.0827 1.208138,-0.12305 1.861328,-0.12305 0.33073,0 0.860287,0.0281 1.587891,0.0859 0.562239,0.0413 0.908724,0.0625 1.041016,0.0625 0.338997,0 0.507812,-0.11074 0.507812,-0.33399 0,-0.22324 -0.15651,-0.3517 -0.470703,-0.38476 -0.413411,-0.0413 -0.798763,-0.18555 -1.154297,-0.4336 -0.355534,-0.25631 -0.533203,-0.61165 -0.533203,-1.0664 0,-0.63666 0.360742,-1.93496 1.080078,-3.89453 0.926041,-0.008 2.218945,-0.0137 3.880859,-0.0137 0.297656,0 0.716472,0.005 1.253907,0.0137 0.338997,0.7276 0.657421,1.53672 0.955078,2.42968 0.297656,0.8847 0.445312,1.49349 0.445312,1.82422 0,0.7028 -0.508398,1.0985 -1.52539,1.18946 -0.264584,0.0248 -0.396485,0.12864 -0.396485,0.31054 0,0.23978 0.189974,0.35938 0.570313,0.35938 0.214974,0 0.6653,-0.0246 1.351562,-0.0742 0.917774,-0.0661 1.661914,-0.0996 2.232422,-0.0996 0.587044,0 1.311979,0.0369 2.171875,0.11133 0.727604,0.0579 1.17793,0.0879 1.351563,0.0879 0.185748,0 0.317733,-0.0419 0.396484,-0.12695 0.0757,0.0272 0.171047,0.0391 0.285156,0.0391 0.198438,0 0.664518,-0.0192 1.400391,-0.0605 0.802018,-0.0413 1.460026,-0.0625 1.972656,-0.0625 l 3.806641,0.0996 c 0.322461,0 0.484375,-0.1127 0.484375,-0.33594 0,-0.22324 -0.186524,-0.34629 -0.558594,-0.37109 -0.694531,-0.0331 -1.166016,-0.19499 -1.414062,-0.48438 -0.248046,-0.29766 -0.383397,-0.78144 -0.408204,-1.45117 -0.01653,-0.67799 -0.02539,-2.47239 -0.02539,-5.38281 0.330729,-0.0248 0.591081,-0.0371 0.78125,-0.0371 0.65319,0 1.228515,0.14421 1.724609,0.43359 0.496094,0.28939 0.867188,0.76973 1.115235,1.43946 0.248046,0.66972 0.489192,1.81842 0.720703,3.44726 0.1819,1.27331 0.519531,2.15821 1.015625,2.6543 l 4.77539,0.11133 c 0.628386,0 0.94336,-0.1196 0.94336,-0.35938 0,-0.22324 -0.195378,-0.34629 -0.583985,-0.37109 -0.702799,-0.0413 -1.248112,-0.28939 -1.636718,-0.74414 -0.388607,-0.46302 -0.7528,-1.41484 -1.091797,-2.85352 -0.363803,-1.53789 -0.909115,-2.56354 -1.636719,-3.07617 -0.719336,-0.5209 -1.637696,-0.85852 -2.753906,-1.01562 1.016992,-0.0827 1.901888,-0.28151 2.654297,-0.59571 0.760677,-0.31419 1.394075,-0.79453 1.898437,-1.43945 0.504362,-0.64492 0.755859,-1.37135 0.755859,-2.18164 10e-7,-1.20717 -0.533008,-2.1836 -1.599609,-2.92774 -1.066602,-0.7524 -2.539128,-1.1289 -4.416016,-1.1289 -0.578776,0 -1.227929,0.0246 -1.947265,0.0742 -1.620573,0.0992 -3.596094,0.15039 -5.927735,0.15039 -0.46302,0 -0.695312,0.11959 -0.695312,0.35937 0,0.23152 0.174219,0.35111 0.521484,0.35938 0.884701,0.0165 1.426563,0.28033 1.625,0.79297 0.206706,0.50436 0.310547,1.90651 0.310547,4.20507 l -0.01367,4.45313 0.01367,2.30664 c 0,1.72806 -0.198828,2.70794 -0.595703,2.93945 -0.388607,0.23151 -0.814323,0.34571 -1.277344,0.34571 -0.173073,0 -0.296701,0.0409 -0.36914,0.11914 -0.04108,-0.0135 -0.08671,-0.0243 -0.138672,-0.0312 -0.752409,-0.10749 -1.303125,-0.40475 -1.650391,-0.89258 -0.347266,-0.49609 -0.978711,-1.91055 -1.896484,-4.24219 -1.992643,-5.07669 -3.535547,-8.79739 -4.626953,-11.16211 z M 94.875,111.08789 c -2.315104,0 -4.232552,0.85834 -5.753906,2.57813 -1.513086,1.71152 -2.271485,3.73476 -2.271485,6.0664 0,2.33991 0.752995,4.31198 2.257813,5.91602 1.504817,1.60403 3.55612,2.40429 6.152344,2.40429 1.95957,0 3.588606,-0.59453 4.886714,-1.78515 1.30638,-1.19062 1.95899,-2.05781 1.95899,-2.60352 0,-0.26458 -0.1319,-0.39843 -0.39649,-0.39843 -0.15709,-1e-5 -0.32246,0.125 -0.49609,0.37304 -1.413866,2.05052 -2.969075,3.07617 -4.664062,3.07617 -1.562695,0 -2.867903,-0.70377 -3.917969,-2.10937 -1.050064,-1.41387 -1.576171,-3.31556 -1.576172,-5.70508 10e-7,-1.39733 0.186524,-2.59524 0.558594,-3.5957 0.380339,-1.00046 0.904492,-1.78692 1.574219,-2.35742 0.677995,-0.57878 1.513672,-0.86719 2.505859,-0.86719 1.339454,0 2.447787,0.53645 3.324219,1.61133 0.884703,1.0666 1.496942,2.03763 1.835942,2.91406 0.10748,0.27285 0.24824,0.41016 0.42187,0.41016 0.26459,-1e-5 0.39649,-0.16537 0.39649,-0.4961 l -0.0254,-0.49609 -0.24804,-3.86914 c -0.0331,-0.42995 -0.0734,-0.68685 -0.12305,-0.76953 -0.0496,-0.0827 -0.15885,-0.12305 -0.32422,-0.12305 -0.14882,0 -0.3334,0.15996 -0.55664,0.48242 -0.19017,0.26459 -0.37324,0.50378 -0.546874,0.71875 -1.686718,-0.91777 -3.343815,-1.375 -4.972656,-1.375 z m 16.74219,0.0234 c -2.53008,0 -4.64981,0.85143 -6.36133,2.55469 -1.70326,1.70326 -2.55664,3.7457 -2.55664,6.12695 0,2.52181 0.82337,4.52389 2.46875,6.00391 1.65365,1.48001 3.64147,2.21874 5.96484,2.21874 2.55488,0 4.69772,-0.89179 6.42578,-2.67773 1.72806,-1.79421 2.5918,-3.84896 2.5918,-6.16406 0,-1.49655 -0.37995,-2.87754 -1.14062,-4.14258 -0.75242,-1.27331 -1.75691,-2.24434 -3.01368,-2.91406 -1.2485,-0.66973 -2.70872,-1.00586 -4.3789,-1.00586 z m 21.97656,0.0625 c -0.39687,0 -0.5957,0.11959 -0.5957,0.35937 0,0.23979 0.2446,0.384 0.73242,0.4336 0.678,0.0661 1.15638,0.44264 1.4375,1.1289 0.28112,0.68626 0.42187,1.9319 0.42187,3.73438 0,3.05098 -0.11959,5.13724 -0.35937,6.26172 -0.23151,1.12448 -0.66068,1.9513 -1.28906,2.48047 -0.62838,0.5209 -1.55905,0.78125 -2.79102,0.78125 -1.21543,0 -2.19186,-0.2392 -2.92773,-0.71875 -0.73587,-0.47956 -1.21426,-1.11986 -1.4375,-1.92188 -0.22324,-0.81029 -0.33594,-2.39011 -0.33594,-4.73828 0,-1.46348 0.0423,-2.80215 0.125,-4.01758 0.0827,-1.2237 0.26921,-2.02936 0.55859,-2.41797 0.29766,-0.39688 0.74258,-0.61342 1.33789,-0.64648 0.33073,-0.0165 0.4961,-0.13614 0.4961,-0.35938 0,-0.23151 -0.20918,-0.34765 -0.63086,-0.34765 -0.44648,0 -1.05873,0.03 -1.83594,0.0879 -0.48783,0.0413 -0.92239,0.0625 -1.30273,0.0625 l -3.99414,-0.13672 c -0.35554,0 -0.53321,0.12305 -0.53321,0.37109 0,0.12404 0.0335,0.21557 0.0996,0.27344 0.0744,0.0496 0.25554,0.09 0.54492,0.12305 0.45476,0.0496 0.79434,0.17461 1.01758,0.37304 0.22324,0.19018 0.38516,0.58242 0.48438,1.17774 0.10748,0.5953 0.16015,1.35715 0.16015,2.2832 l -0.0488,6.60938 c 0,1.15754 0.11615,2.03359 0.34766,2.6289 0.23978,0.59532 0.62318,1.12142 1.15234,1.57617 0.53744,0.45476 1.26237,0.79434 2.17188,1.01758 0.9095,0.21498 1.97897,0.32227 3.21094,0.32227 1.59577,0 2.92754,-0.26576 3.99414,-0.79492 1.07486,-0.53744 1.82786,-1.28503 2.25781,-2.24414 0.42995,-0.96739 0.64453,-2.52605 0.64453,-4.67579 0,-3.26595 0.0458,-5.29264 0.13672,-6.07812 0.0992,-0.79375 0.3138,-1.36023 0.64453,-1.69922 0.339,-0.34727 0.71549,-0.5407 1.12891,-0.58203 0.0611,-0.007 0.11551,-0.0159 0.16406,-0.0293 0.0775,0.0848 0.21156,0.14315 0.4043,0.17774 0.77721,0.14883 1.43867,0.60801 1.98437,1.37695 0.55398,0.76895 0.8532,1.62923 0.89453,2.58008 0.0496,0.95084 0.0742,3.55976 0.0742,7.82617 0,0.98392 -0.11959,1.76152 -0.35937,2.33203 -0.23151,0.57051 -0.81569,0.89238 -1.75,0.9668 -0.5209,0.0413 -0.78125,0.16094 -0.78125,0.35937 0,0.27286 0.16191,0.41016 0.48437,0.41016 0.14883,0 0.39688,-0.0212 0.74414,-0.0625 0.55397,-0.0744 1.44577,-0.11133 2.67774,-0.11133 0.76894,0 1.40234,0.0315 1.89843,0.0977 0.28939,0.0331 0.52858,0.0508 0.71875,0.0508 0.29766,0 0.44727,-0.125 0.44727,-0.37305 0,-0.21497 -0.14075,-0.32226 -0.42188,-0.32226 -0.43821,0 -0.93085,-0.15307 -1.47656,-0.45899 -0.53743,-0.31419 -0.85931,-0.81373 -0.96679,-1.5 -0.0992,-0.69452 -0.14844,-1.6498 -0.14844,-2.86523 0,-3.93568 0.009,-6.01504 0.0254,-6.23828 0.82682,1.00046 2.26048,2.6541 4.30273,4.96093 2.05052,2.29857 3.59343,3.99799 4.62696,5.09766 1.0418,1.09142 1.61171,1.66134 1.71093,1.71094 0.0992,0.0496 0.18536,0.0742 0.25977,0.0742 0.28112,0 0.42187,-0.22689 0.42187,-0.68164 l 0.0879,-5.28321 -0.0625,-7.01953 c 0,-1.14102 0.22344,-1.90631 0.66993,-2.29492 0.45475,-0.38861 0.94199,-0.60665 1.46289,-0.65625 0.42168,-0.0413 0.63281,-0.17864 0.63281,-0.41016 0,-0.23978 -0.15652,-0.35937 -0.4707,-0.35937 -0.17364,0 -0.38477,0.0123 -0.63282,0.0371 -0.59531,0.0661 -1.46444,0.0996 -2.60546,0.0996 -0.9095,0 -1.59902,-0.03 -2.07032,-0.0879 -0.24804,-0.0331 -0.45033,-0.0488 -0.60742,-0.0488 -0.28112,0 -0.42187,0.11959 -0.42187,0.35937 0,0.22325 0.15306,0.3517 0.45898,0.38477 0.57051,0.0496 1.07005,0.21842 1.5,0.50781 0.42995,0.28939 0.71146,0.68704 0.84375,1.19141 0.13229,0.49609 0.19727,1.32292 0.19727,2.48047 l -0.0117,4.91015 c 0,0.16537 -0.003,0.52956 -0.0117,1.0918 -2.64583,-2.72025 -5.94968,-6.33366 -9.91016,-10.83984 -0.92604,-0.0248 -1.92708,-0.0371 -3.00195,-0.0371 -0.49609,0 -0.83913,-0.007 -1.0293,-0.0234 -0.1571,-0.0165 -0.27669,-0.0254 -0.35937,-0.0254 -0.11667,0 -0.21255,0.0165 -0.28907,0.0488 -0.10314,-0.0654 -0.26263,-0.0996 -0.47851,-0.0996 -0.16536,0 -0.46263,0.0177 -0.89258,0.0508 -0.57051,0.0496 -1.08776,0.0742 -1.55078,0.0742 -0.50436,0 -0.98815,-0.0212 -1.45117,-0.0625 -0.44649,-0.0496 -0.76491,-0.0742 -0.95508,-0.0742 z m -54.232422,0.0254 c -0.429948,0 -0.980664,0.0158 -1.650391,0.0488 -1.876887,0.0909 -3.595507,0.13672 -5.158203,0.13672 -2.058789,0 -5.23418,-0.0581 -9.52539,-0.17383 -0.132292,0.66972 -0.251888,1.51425 -0.359375,2.53125 -0.09922,1.00872 -0.150391,1.54863 -0.150391,1.62304 0,0.24805 0.140755,0.37305 0.421875,0.37305 0.181901,0 0.343815,-0.15652 0.484375,-0.4707 0.355534,-0.79376 0.814714,-1.43946 1.376953,-1.93555 0.56224,-0.50436 1.144466,-0.81048 1.748047,-0.91797 0.611849,-0.11576 1.600586,-0.17383 2.964844,-0.17383 0.214974,2.20762 0.322265,5.06804 0.322265,8.58204 0,2.22415 -0.04577,3.67207 -0.136718,4.34179 -0.08268,0.66146 -0.30957,1.14525 -0.681641,1.45117 -0.37207,0.30593 -0.926237,0.45899 -1.662109,0.45899 -0.314193,0 -0.470703,0.1196 -0.470703,0.35937 0,0.16538 0.09499,0.26922 0.285156,0.31055 0.388607,0.0165 0.643555,0.0234 0.767578,0.0234 l 1.564453,-0.0605 c 0.429948,-0.0165 1.64362,-0.0254 3.644531,-0.0254 l 2.56836,0.0625 0.347656,0.0117 c 0.28112,0 0.421875,-0.11614 0.421875,-0.34766 0,-0.20671 -0.161914,-0.32285 -0.484375,-0.34765 -0.950847,-0.0661 -1.554232,-0.18574 -1.810547,-0.35938 -0.256315,-0.17363 -0.439388,-0.44628 -0.546875,-0.81836 -0.107487,-0.37206 -0.19707,-1.45924 -0.271484,-3.26172 -0.07441,-1.81074 -0.111328,-3.68782 -0.111328,-5.63086 0,-1.90169 0.06497,-3.48496 0.197265,-4.75 1.49655,0 2.567969,0.0792 3.212891,0.23633 0.65319,0.1571 1.223112,0.47552 1.710937,0.95508 0.496094,0.47955 0.900651,1.05293 1.214844,1.72266 0.190169,0.39688 0.388997,0.5957 0.595703,0.5957 0.272852,0 0.410156,-0.15996 0.410156,-0.48242 l -0.185546,-1.96094 c -0.09095,-1.05833 -0.16673,-1.7567 -0.22461,-2.0957 -0.388607,-0.008 -0.664714,-0.0117 -0.830078,-0.0117 z m 94.675782,0 c -0.42995,0 -0.98066,0.0158 -1.65039,0.0488 -1.87689,0.0909 -3.59746,0.13672 -5.16016,0.13672 -2.05879,0 -5.23223,-0.0581 -9.52344,-0.17383 -0.13229,0.66972 -0.25188,1.51425 -0.35937,2.53125 -0.0992,1.00872 -0.15039,1.54863 -0.15039,1.62304 0,0.24805 0.14075,0.37305 0.42187,0.37305 0.1819,0 0.34382,-0.15652 0.48438,-0.4707 0.35553,-0.79376 0.81471,-1.43946 1.37695,-1.93555 0.56224,-0.50436 1.14447,-0.81048 1.74805,-0.91797 0.61185,-0.11576 1.60059,-0.17383 2.96484,-0.17383 0.21498,2.20762 0.32227,5.06804 0.32227,8.58204 0,2.22415 -0.0458,3.67207 -0.13672,4.34179 -0.0827,0.66146 -0.30957,1.14525 -0.68164,1.45117 -0.37207,0.30593 -0.92624,0.45899 -1.66211,0.45899 -0.31419,0 -0.4707,0.1196 -0.4707,0.35937 0,0.16538 0.095,0.26922 0.28515,0.31055 0.38861,0.0165 0.64355,0.0234 0.76758,0.0234 l 1.5625,-0.0605 c 0.42995,-0.0165 1.64557,-0.0254 3.64649,-0.0254 l 2.56835,0.0625 0.34766,0.0117 c 0.28112,0 0.41992,-0.11614 0.41992,-0.34766 0,-0.20671 -0.15996,-0.32285 -0.48242,-0.34765 -0.95085,-0.0661 -1.55423,-0.18574 -1.81055,-0.35938 -0.25632,-0.17363 -0.43938,-0.44628 -0.54687,-0.81836 -0.10749,-0.37206 -0.19707,-1.45924 -0.27149,-3.26172 -0.0744,-1.81074 -0.11328,-3.68782 -0.11328,-5.63086 0,-1.90169 0.0669,-3.48496 0.19922,-4.75 1.49655,0 2.56797,0.0792 3.21289,0.23633 0.65319,0.1571 1.22311,0.47552 1.71094,0.95508 0.49609,0.47955 0.90065,1.05293 1.21484,1.72266 0.19017,0.39688 0.389,0.5957 0.59571,0.5957 0.27285,0 0.41015,-0.15996 0.41015,-0.48242 l -0.1875,-1.96094 c -0.0546,-0.63581 -0.10183,-1.14139 -0.14453,-1.51758 0.0551,0.0773 0.15197,0.12913 0.29297,0.1543 0.46302,0.0827 0.89414,0.28151 1.29102,0.5957 0.40514,0.3142 0.97851,1.03177 1.72265,2.15625 0.75241,1.11621 1.50541,2.28802 2.25782,3.51172 0.75241,1.21543 1.20814,2.04916 1.36523,2.50391 0.1571,0.44648 0.23437,1.34908 0.23437,2.70508 10e-6,1.50481 -0.10728,2.47929 -0.32226,2.92578 -0.2067,0.43821 -0.7151,0.70742 -1.52539,0.80664 -0.23978,0.0248 -0.35938,0.14095 -0.35938,0.34765 0,0.23978 0.15651,0.35938 0.47071,0.35938 0.12402,0 0.29479,-0.009 0.50976,-0.0254 1.14102,-0.10749 2.16127,-0.16016 3.0625,-0.16016 0.27286,0 0.72663,0.0192 1.36328,0.0605 1.11622,0.0744 1.79883,0.11133 2.04688,0.11133 0.33073,0 0.49609,-0.12305 0.49609,-0.3711 0,-0.23978 -0.14766,-0.35937 -0.44531,-0.35937 -0.83509,0 -1.3612,-0.23229 -1.57617,-0.69531 -0.20671,-0.47129 -0.31055,-1.87149 -0.31055,-4.20313 0,-1.53789 0.0423,-2.43509 0.125,-2.69141 0.0827,-0.26458 0.52956,-0.99297 1.33984,-2.18359 0.81856,-1.19063 1.55729,-2.21972 2.21875,-3.08789 0.66973,-0.87643 1.2362,-1.46751 1.69922,-1.77344 0.47129,-0.3142 0.98509,-0.50072 1.53907,-0.55859 0.23978,-0.0248 0.35937,-0.14095 0.35937,-0.34766 0,-0.22324 -0.11959,-0.33398 -0.35937,-0.33398 -0.10749,0 -0.23939,0.009 -0.39649,0.0254 -0.82682,0.0827 -1.5429,0.12305 -2.14648,0.12305 -0.55398,0 -1.35964,-0.0458 -2.41797,-0.13672 -0.14056,-0.0165 -0.25326,-0.0254 -0.33594,-0.0254 -0.29766,0 -0.44531,0.12845 -0.44531,0.38476 0,0.16538 0.12305,0.28152 0.37109,0.34766 0.61186,0.17363 0.9795,0.36015 1.10352,0.55859 0.13229,0.19844 0.19922,0.39186 0.19922,0.58203 0,0.66973 -1.1541,2.5099 -3.46094,5.51953 -2.45566,-3.30729 -3.68359,-5.23704 -3.68359,-5.79101 0,-0.52089 0.42571,-0.82356 1.27734,-0.90625 0.30593,-0.0331 0.45898,-0.15268 0.45898,-0.35938 0,-0.21498 -0.14075,-0.32226 -0.42187,-0.32226 -0.16537,0 -0.36764,0.009 -0.60742,0.0254 -1.17409,0.091 -2.23125,0.13476 -3.17383,0.13476 -0.59531,0 -1.53483,-0.0438 -2.81641,-0.13476 -0.28112,-0.0248 -0.48684,-0.0391 -0.61914,-0.0391 -0.23523,0 -0.3759,0.0865 -0.41992,0.25586 -0.0139,-0.10522 -0.0267,-0.19518 -0.0391,-0.26758 -0.38861,-0.008 -0.66471,-0.0117 -0.83008,-0.0117 z m -62.60547,0.79297 c 1.30638,0 2.3847,0.6334 3.23633,1.89844 0.85163,1.26503 1.27734,3.14902 1.27734,5.65429 0,2.65411 -0.45032,4.58041 -1.35156,5.7793 -0.89297,1.19062 -1.94668,1.78711 -3.16211,1.78711 -1.37253,0 -2.46856,-0.66146 -3.28711,-1.98438 -0.81029,-1.32292 -1.21484,-3.18424 -1.21484,-5.58203 0,-2.497 0.42571,-4.37754 1.27734,-5.64258 0.85163,-1.2733 1.9265,-1.91015 3.22461,-1.91015 z m -57.55664,0.0137 c 0.967383,0 1.757292,0.28841 2.369141,0.86719 0.611849,0.57878 0.917968,1.38444 0.917968,2.41797 0,0.66972 -0.153059,1.30312 -0.458984,1.89843 -0.297656,0.58705 -0.814909,1.01622 -1.550781,1.28907 -0.727604,0.26458 -1.450586,0.39648 -2.169922,0.39648 -0.107487,0 -0.269402,-0.003 -0.484375,-0.0117 v -6.63476 c 0.51263,-0.14883 0.97181,-0.22266 1.376953,-0.22266 z m -17.101563,3.21094 c 0.256316,0.65318 0.643164,1.5927 1.164063,2.8164 0.479557,1.12448 0.836849,2.00938 1.068359,2.6543 l -4.367187,0.0606 z"
       id="text1"
       aria-label="HART COUNTY" />
  </g>
</svg>
